# xmcd CD database file
#
# Track frame offsets:
#	150
#	4293
#	43265
#	87384
#	91611
#
# Disc length: 1766 seconds
#
# Revision: 0
# Processed by: cddbd v1.5.1PL0 Copyright (c) Steve Scherf et al.
# Submitted via: CDex 1.51
#
DISCID=3306e405
DTITLE=UZEB and Friends - Live at the Montreal Jazz Festival
DYEAR=1987
DGENRE=Jazz
TTITLE0=intro
TTITLE1=Four P.M.
TTITLE2=???
TTITLE3=Alain Caron speaks/band intros
TTITLE4=Bull's Nostrils Blues
EXTD=YEAR: 1987
EXTT0=
EXTT1=
EXTT2=
EXTT3=
EXTT4=
PLAYORDER=
